<svg width="38" height="38" viewBox="0 0 38 38" fill="none" xmlns="http://www.w3.org/2000/svg">
<rect width="38" height="38" rx="19" fill="#201335"/>
<path d="M25.6497 26.1586C25.8905 26.1587 26.1223 26.2322 26.2983 26.3642C26.4743 26.4963 26.5813 26.6771 26.5977 26.8701C26.6141 27.0631 26.5387 27.2539 26.3867 27.4039C26.2348 27.554 26.0175 27.6521 25.7789 27.6785L25.6497 27.6856H12.3501C12.1093 27.6856 11.8775 27.6121 11.7015 27.48C11.5255 27.3479 11.4185 27.1672 11.4021 26.9742C11.3857 26.7812 11.4611 26.5904 11.6131 26.4403C11.7651 26.2903 11.9823 26.1921 12.2209 26.1658L12.3501 26.1586H25.6497ZM19.0088 11.4009C19.2382 11.4012 19.4599 11.4681 19.6327 11.5893C19.8055 11.7106 19.9179 11.878 19.9491 12.0606L19.958 12.1644V22.5407L23.717 19.5173C23.8778 19.3879 24.091 19.309 24.318 19.2952C24.545 19.2814 24.7707 19.3335 24.9539 19.442L25.0616 19.5153C25.2229 19.6446 25.321 19.8162 25.338 19.9987C25.355 20.1813 25.2897 20.3627 25.1541 20.5098L25.0629 20.5954L19.6855 24.9218L19.5968 24.9859L19.4802 25.046L19.4346 25.0674L19.3193 25.106L19.1672 25.1366L19.0785 25.1447L19.0024 25.1468C18.9381 25.1467 18.874 25.1412 18.8111 25.1305L18.7097 25.1071C18.5892 25.0759 18.478 25.0253 18.3827 24.9584L12.9458 20.5964C12.7753 20.4603 12.6753 20.2774 12.6659 20.0845C12.6565 19.8916 12.7385 19.703 12.8953 19.5567C13.052 19.4104 13.272 19.3172 13.5109 19.2959C13.7498 19.2746 13.9898 19.3268 14.1827 19.442L14.2892 19.5163L18.057 22.5367V12.1634C18.057 11.9609 18.1571 11.7667 18.3354 11.6235C18.5136 11.4803 18.7554 11.3999 19.0075 11.3999L19.0088 11.4009Z" fill="#FDC232"/>
</svg>
