<svg width="45" height="44" viewBox="0 0 45 44" fill="none" xmlns="http://www.w3.org/2000/svg">
<ellipse cx="22.5" cy="22" rx="22.5" ry="22" fill="#3DCCC7"/>
<path d="M22.5 9C15.044 9 9 14.8201 9 22C9 29.1799 15.044 35 22.5 35C29.9561 35 36 29.1799 36 22C36 14.8201 29.9561 9 22.5 9ZM22.5 10.8837C25.441 10.8837 28.1255 11.9432 30.1639 13.6865C28.6661 15.589 26.3907 16.8559 24.1105 17.7132C22.8198 15.4495 21.3732 13.2715 19.7804 11.1937C20.6712 10.987 21.5844 10.8829 22.5007 10.8837H22.5ZM17.5887 11.9367C19.094 14.1051 20.552 16.1155 21.8837 18.3912C18.5155 19.2316 14.7092 19.736 11.1931 19.7445C11.9342 16.2813 14.35 13.4057 17.5887 11.9374V11.9367ZM31.4444 14.9722C33.1125 16.9352 34.0302 19.3901 34.0439 21.9265C31.3736 21.4195 28.7181 21.2869 26.014 21.5495C25.7103 20.8196 25.3418 20.126 24.9887 19.3785C27.3195 18.4731 29.8116 16.9235 31.4444 14.9715V14.9722ZM22.8213 20.1111C23.1102 20.7026 23.445 21.3305 23.7596 21.972C19.9998 23.5684 16.0004 25.7017 13.9248 29.4419C11.9322 27.3185 10.8703 24.5349 10.9615 21.6743C14.9879 21.6561 18.9401 21.1712 22.8213 20.1111ZM28.9219 23.142C30.6019 23.1424 32.2749 23.3499 33.9001 23.7596C33.6495 25.2651 33.0799 26.7049 32.2267 27.9894C31.3736 29.2739 30.2551 30.3757 28.9408 31.2261C28.3212 28.5124 27.7306 25.9156 26.6863 23.2974C27.4264 23.1936 28.1734 23.1414 28.9213 23.1414L28.9219 23.142ZM33.9602 23.3435C33.9521 23.4072 33.9446 23.4696 33.9352 23.5321C33.9446 23.469 33.9527 23.4066 33.9602 23.3435ZM24.5507 23.805C25.6145 26.4525 26.4494 29.384 27.0097 32.2368C25.5835 32.8196 24.0499 33.1189 22.5007 33.1169C19.9342 33.1205 17.4404 32.2967 15.4165 30.7769C17.507 27.5113 20.745 25.04 24.55 23.8057L24.5507 23.805Z" fill="black"/>
</svg>
