<svg width="40" height="40" viewBox="0 0 40 40" fill="none" xmlns="http://www.w3.org/2000/svg">
<circle cx="20" cy="20" r="20" fill="#FF7096"/>
<path d="M19.8316 9C13.8493 9 9 13.7758 9 19.6675C9 25.5591 13.8493 30.3349 19.8316 30.3349C25.8139 30.3349 30.6632 25.5591 30.6632 19.6675C30.6632 13.7758 25.8139 9 19.8316 9ZM19.8316 10.5457C22.1912 10.5457 24.3451 11.4151 25.9807 12.8456C24.7789 14.4068 22.9533 15.4464 21.1238 16.1499C20.0882 14.2923 18.9275 12.5051 17.6496 10.8001C18.3643 10.6305 19.0969 10.5451 19.8321 10.5457H19.8316ZM15.8911 11.4098C17.0988 13.1891 18.2686 14.8388 19.3371 16.7062C16.6346 17.3958 13.5807 17.8097 10.7596 17.8167C11.3542 14.9749 13.2926 12.6152 15.8911 11.4103V11.4098ZM27.0081 13.9006C28.3464 15.5114 29.0827 17.5259 29.0937 19.6072C26.9512 19.1912 24.8206 19.0824 22.6511 19.2978C22.4073 18.6989 22.1116 18.1298 21.8284 17.5164C23.6985 16.7734 25.698 15.5018 27.0081 13.9001V13.9006ZM20.0894 18.1175C20.3212 18.6029 20.5898 19.1181 20.8422 19.6445C17.8256 20.9545 14.6167 22.705 12.9514 25.7741C11.3526 24.0317 10.5006 21.7476 10.5738 19.4003C13.8044 19.3853 16.9753 18.9874 20.0894 18.1175ZM24.9842 20.6046C26.3321 20.6049 27.6744 20.7752 28.9783 21.1113C28.7773 22.3467 28.3203 23.5282 27.6357 24.5822C26.9512 25.6363 26.0538 26.5403 24.9993 27.2382C24.5022 25.0113 24.0283 22.8805 23.1905 20.7321C23.7843 20.6469 24.3836 20.6041 24.9836 20.6041L24.9842 20.6046ZM29.0265 20.77C29.02 20.8222 29.0141 20.8734 29.0065 20.9246C29.0141 20.8729 29.0206 20.8217 29.0265 20.77ZM21.4769 21.1487C22.3304 23.3211 23.0004 25.7266 23.4499 28.0676C22.3056 28.5457 21.0751 28.7914 19.8321 28.7898C17.773 28.7927 15.7721 28.1167 14.1483 26.8696C15.8255 24.1899 18.4235 22.1621 21.4764 21.1492L21.4769 21.1487Z" fill="#262626"/>
</svg>
