<svg width="40" height="40" viewBox="0 0 40 40" fill="none" xmlns="http://www.w3.org/2000/svg">
<circle cx="20" cy="20" r="20" fill="#FF7096"/>
<path fill-rule="evenodd" clip-rule="evenodd" d="M19.5057 8C13.1488 8 8 13.399 8 20.0648C8 25.4035 11.2935 29.9127 15.867 31.5113C16.4423 31.6169 16.658 31.2549 16.658 30.9382C16.658 30.6517 16.6437 29.7016 16.6437 28.6912C13.7528 29.2492 13.005 27.9522 12.7749 27.2736C12.6454 26.9267 12.0845 25.8559 11.5955 25.5694C11.1928 25.3432 10.6175 24.7852 11.5811 24.7701C12.4872 24.755 13.1344 25.6448 13.3501 26.0067C14.3857 27.8316 16.0396 27.3188 16.7012 27.0021C16.8019 26.2179 17.1039 25.69 17.4347 25.3884C14.8747 25.0868 12.1996 24.0462 12.1996 19.4314C12.1996 18.1194 12.6454 17.0335 13.3789 16.189C13.2639 15.8874 12.8612 14.6507 13.494 12.9918C13.494 12.9918 14.4576 12.6751 16.658 14.2285C17.5785 13.957 18.5565 13.8213 19.5345 13.8213C20.5124 13.8213 21.4904 13.957 22.4109 14.2285C24.6113 12.66 25.5749 12.9918 25.5749 12.9918C26.2078 14.6507 25.8051 15.8874 25.69 16.189C26.4235 17.0335 26.8693 18.1043 26.8693 19.4314C26.8693 24.0613 24.1799 25.0868 21.6199 25.3884C22.0369 25.7655 22.3965 26.4893 22.3965 27.6204C22.3965 29.2341 22.3821 30.5311 22.3821 30.9382C22.3821 31.2549 22.5978 31.632 23.1731 31.5113C25.4572 30.7027 27.4419 29.1634 28.848 27.11C30.2541 25.0567 31.0107 22.5927 31.0114 20.0648C31.0114 13.399 25.8626 8 19.5057 8Z" fill="#262626"/>
</svg>
