<svg width="45" height="44" viewBox="0 0 45 44" fill="none" xmlns="http://www.w3.org/2000/svg">
<ellipse cx="22.5" cy="22" rx="22.5" ry="22" fill="#3DCCC7"/>
<path fill-rule="evenodd" clip-rule="evenodd" d="M22.3684 9C14.9533 9 8.94736 15.1578 8.94736 22.7605C8.94736 28.8496 12.7891 33.9925 18.124 35.8158C18.7951 35.9362 19.0467 35.5234 19.0467 35.1622C19.0467 34.8354 19.0299 33.7517 19.0299 32.5993C15.6579 33.2357 14.7855 31.7565 14.5171 30.9824C14.3661 30.5868 13.7118 29.3656 13.1414 29.0388C12.6717 28.7808 12.0006 28.1443 13.1247 28.1271C14.1816 28.1099 14.9365 29.1248 15.1881 29.5376C16.396 31.6189 18.3253 31.034 19.097 30.6728C19.2145 29.7784 19.5668 29.1764 19.9526 28.8324C16.9664 28.4883 13.846 27.3015 13.846 22.0381C13.846 20.5416 14.3661 19.3032 15.2217 18.34C15.0875 17.9959 14.6178 16.5855 15.3559 14.6934C15.3559 14.6934 16.4799 14.3322 19.0467 16.1039C20.1204 15.7943 21.2612 15.6395 22.402 15.6395C23.5428 15.6395 24.6835 15.7943 25.7572 16.1039C28.324 14.315 29.448 14.6934 29.448 14.6934C30.1862 16.5855 29.7164 17.9959 29.5822 18.34C30.4378 19.3032 30.9579 20.5244 30.9579 22.0381C30.9579 27.3187 27.8207 28.4883 24.8345 28.8324C25.321 29.2624 25.7404 30.088 25.7404 31.378C25.7404 33.2185 25.7237 34.6978 25.7237 35.1622C25.7237 35.5234 25.9753 35.9534 26.6464 35.8158C29.3106 34.8935 31.6258 33.1379 33.2659 30.7959C34.9061 28.454 35.7887 25.6437 35.7895 22.7605C35.7895 15.1578 29.7835 9 22.3684 9Z" fill="black"/>
</svg>
