<svg width="45" height="44" viewBox="0 0 45 44" fill="none" xmlns="http://www.w3.org/2000/svg">
<ellipse cx="22.5" cy="22" rx="22.5" ry="22" fill="#201335"/>
<path fill-rule="evenodd" clip-rule="evenodd" d="M22.3683 9C14.9532 9 8.94727 15.1578 8.94727 22.7605C8.94727 28.8496 12.789 33.9925 18.1239 35.8158C18.795 35.9362 19.0466 35.5234 19.0466 35.1622C19.0466 34.8354 19.0298 33.7517 19.0298 32.5993C15.6578 33.2357 14.7854 31.7565 14.517 30.9824C14.366 30.5868 13.7117 29.3656 13.1413 29.0388C12.6716 28.7808 12.0006 28.1443 13.1246 28.1271C14.1815 28.1099 14.9364 29.1248 15.1881 29.5376C16.3959 31.6189 18.3252 31.034 19.0969 30.6728C19.2144 29.7784 19.5667 29.1764 19.9525 28.8324C16.9663 28.4883 13.846 27.3015 13.846 22.0381C13.846 20.5416 14.366 19.3032 15.2216 18.34C15.0874 17.9959 14.6177 16.5855 15.3558 14.6934C15.3558 14.6934 16.4798 14.3322 19.0466 16.1039C20.1203 15.7943 21.2611 15.6395 22.4019 15.6395C23.5427 15.6395 24.6834 15.7943 25.7571 16.1039C28.3239 14.315 29.4479 14.6934 29.4479 14.6934C30.1861 16.5855 29.7163 17.9959 29.5821 18.34C30.4377 19.3032 30.9578 20.5244 30.9578 22.0381C30.9578 27.3187 27.8206 28.4883 24.8344 28.8324C25.3209 29.2624 25.7404 30.088 25.7404 31.378C25.7404 33.2185 25.7236 34.6978 25.7236 35.1622C25.7236 35.5234 25.9752 35.9534 26.6463 35.8158C29.3106 34.8935 31.6257 33.1379 33.2658 30.7959C34.906 28.454 35.7886 25.6437 35.7894 22.7605C35.7894 15.1578 29.7835 9 22.3683 9Z" fill="#FDC232"/>
</svg>
