<svg width="40" height="40" viewBox="0 0 40 40" fill="none" xmlns="http://www.w3.org/2000/svg">
<circle cx="20" cy="20" r="20" fill="#FF7096"/>
<path d="M15.0291 29H11.2973V16.9823H15.0291V29ZM13.1612 15.343C11.9679 15.343 11 14.3546 11 13.1613C11 12.5881 11.2277 12.0383 11.633 11.633C12.0383 11.2277 12.588 11 13.1612 11C13.7344 11 14.2841 11.2277 14.6894 11.633C15.0947 12.0383 15.3224 12.5881 15.3224 13.1613C15.3224 14.3546 14.3541 15.343 13.1612 15.343ZM28.996 29H25.2722V23.1499C25.2722 21.7556 25.2441 19.9677 23.332 19.9677C21.3918 19.9677 21.0945 21.4824 21.0945 23.0494V29H17.3667V16.9823H20.9458V18.6216H20.998C21.4963 17.6774 22.7133 16.681 24.5289 16.681C28.3057 16.681 29 19.1681 29 22.3985V29H28.996Z" fill="#262626"/>
</svg>
