<svg width="44" height="44" viewBox="0 0 44 44" fill="none" xmlns="http://www.w3.org/2000/svg">
<circle cx="22" cy="22" r="22" fill="#3DCCC7"/>
<path d="M16.1483 34H11.3799V18.6441H16.1483V34ZM13.7615 16.5494C12.2368 16.5494 11 15.2864 11 13.7616C11 13.0292 11.2909 12.3268 11.8088 11.8089C12.3267 11.291 13.0291 11 13.7615 11C14.4939 11 15.1964 11.291 15.7142 11.8089C16.2321 12.3268 16.5231 13.0292 16.5231 13.7616C16.5231 15.2864 15.2858 16.5494 13.7615 16.5494ZM33.9949 34H29.2367V26.5248C29.2367 24.7433 29.2008 22.4587 26.7576 22.4587C24.2784 22.4587 23.8985 24.3942 23.8985 26.3965V34H19.1352V18.6441H23.7085V20.7388H23.7753C24.4119 19.5323 25.9669 18.259 28.287 18.259C33.1129 18.259 34 21.437 34 25.5648V34H33.9949Z" fill="black"/>
</svg>
