<svg width="40" height="40" viewBox="0 0 40 40" fill="none" xmlns="http://www.w3.org/2000/svg">
<circle cx="20" cy="20" r="20" fill="#FF7096"/>
<path d="M30 15.8919V24.1154C30 24.8804 29.6872 25.6141 29.1305 26.1551C28.5737 26.6961 27.8186 27 27.0312 27H13.9688C13.1814 27 12.4263 26.6961 11.8695 26.1551C11.3128 25.6141 11 24.8804 11 24.1154V15.8919L20.1984 21.1512C20.2898 21.2035 20.3939 21.2311 20.5 21.2311C20.6061 21.2311 20.7102 21.2035 20.8016 21.1512L30 15.8919ZM27.0312 12C27.7617 11.9999 28.4666 12.2615 29.0111 12.7347C29.5555 13.2079 29.9013 13.8596 29.9822 14.565L20.5 19.9846L11.0178 14.565C11.0988 13.8596 11.4445 13.2079 11.9889 12.7347C12.5334 12.2615 13.2383 11.9999 13.9688 12H27.0312Z" fill="#262626"/>
</svg>
