<svg width="40" height="40" viewBox="0 0 40 40" fill="none" xmlns="http://www.w3.org/2000/svg">
<circle cx="20" cy="20" r="20" fill="#262626"/>
<path d="M30 16.1081V24.7885C30 25.596 29.6708 26.3705 29.0847 26.9415C28.4987 27.5125 27.7038 27.8333 26.875 27.8333H13.125C12.2962 27.8333 11.5013 27.5125 10.9153 26.9415C10.3292 26.3705 10 25.596 10 24.7885V16.1081L19.6825 21.6596C19.7787 21.7148 19.8883 21.744 20 21.744C20.1117 21.744 20.2213 21.7148 20.3175 21.6596L30 16.1081ZM26.875 12C27.6439 11.9999 28.3859 12.276 28.959 12.7755C29.5321 13.275 29.8961 13.9629 29.9813 14.7075L20 20.4282L10.0188 14.7075C10.1039 13.9629 10.4679 13.275 11.041 12.7755C11.6141 12.276 12.3561 11.9999 13.125 12H26.875Z" fill="#FF7096"/>
</svg>
