<svg width="46" height="46" viewBox="0 0 46 46" fill="none" xmlns="http://www.w3.org/2000/svg">
<rect x="0.63623" width="45.2456" height="45.2456" rx="22.6228" fill="#211336"/>
<path d="M33.8153 19.3865V28.4817C33.8153 29.3278 33.4677 30.1393 32.849 30.7376C32.2303 31.336 31.3911 31.6721 30.5161 31.6721H15.9998C15.1249 31.6721 14.2857 31.336 13.667 30.7376C13.0483 30.1393 12.7007 29.3278 12.7007 28.4817V19.3865L22.9228 25.2032C23.0244 25.2612 23.1401 25.2917 23.258 25.2917C23.3759 25.2917 23.4916 25.2612 23.5932 25.2032L33.8153 19.3865ZM30.5161 15.082C31.3279 15.0819 32.1113 15.3712 32.7163 15.8946C33.3213 16.418 33.7056 17.1387 33.7955 17.9189L23.258 23.913L12.7205 17.9189C12.8104 17.1387 13.1947 16.418 13.7997 15.8946C14.4047 15.3712 15.1881 15.0819 15.9998 15.082H30.5161Z" fill="#FDC232"/>
</svg>
