<svg width="40" height="40" viewBox="0 0 40 40" fill="none" xmlns="http://www.w3.org/2000/svg">
<circle cx="20" cy="20" r="20" fill="#FF7096"/>
<path d="M18.537 18.1154L20.0519 16.6962C20.4664 16.3077 20.7579 15.8015 20.889 15.2425C21.02 14.6836 20.9847 14.0975 20.7874 13.5592L20.1401 11.7939C19.8986 11.1352 19.4202 10.5954 18.8026 10.2845C18.1849 9.97366 17.4745 9.91511 16.8161 10.1208C14.3934 10.878 12.5313 13.1784 13.1045 15.9109C13.4814 17.7079 14.2021 19.9637 15.5695 22.3644C16.7152 24.3862 18.1565 26.2174 19.8436 27.7946C21.8696 29.6782 24.7637 29.2073 26.6259 27.434C27.1251 26.9585 27.4279 26.3065 27.4728 25.6108C27.5177 24.9151 27.3011 24.2281 26.8673 23.6898L25.6807 22.2172C25.3231 21.7732 24.8437 21.4485 24.3041 21.2848C23.7645 21.121 23.1893 21.1258 22.6524 21.2985L20.6928 21.9295C20.6173 21.8502 20.5305 21.7557 20.4345 21.6468C20.0316 21.1915 19.6752 20.6954 19.3707 20.1663C19.0745 19.6323 18.8323 19.0688 18.6479 18.4846C18.6084 18.3623 18.5715 18.2392 18.537 18.1154Z" fill="#262626"/>
</svg>
