<svg width="46" height="46" viewBox="0 0 46 46" fill="none" xmlns="http://www.w3.org/2000/svg">
<rect width="45.2456" height="45.2456" rx="22.6228" fill="#211336"/>
<path d="M20.9203 20.7843L22.4352 19.3651C22.8497 18.9766 23.1412 18.4704 23.2723 17.9115C23.4033 17.3526 23.368 16.7664 23.1707 16.2282L22.5234 14.4628C22.2819 13.8041 21.8035 13.2643 21.1859 12.9535C20.5682 12.6426 19.8578 12.5841 19.1994 12.7897C16.7767 13.5469 14.9146 15.8474 15.4878 18.5798C15.8647 20.3769 16.5854 22.6326 17.9528 25.0333C19.0985 27.0552 20.5398 28.8864 22.2269 30.4635C24.2529 32.3471 27.147 31.8762 29.0092 30.1029C29.5084 29.6275 29.8112 28.9754 29.8561 28.2797C29.901 27.584 29.6844 26.897 29.2506 26.3588L28.064 24.8862C27.7064 24.4421 27.227 24.1174 26.6874 23.9537C26.1478 23.79 25.5726 23.7948 25.0357 23.9675L23.0761 24.5985C23.0006 24.5191 22.9138 24.4247 22.8178 24.3158C22.4149 23.8604 22.0585 23.3644 21.754 22.8353C21.4578 22.3012 21.2156 21.7377 21.0312 21.1536C20.9917 21.0313 20.9548 20.9082 20.9203 20.7843Z" fill="#FDC232"/>
</svg>
