<svg width="40" height="40" viewBox="0 0 40 40" fill="none" xmlns="http://www.w3.org/2000/svg">
<circle cx="20" cy="20" r="20" fill="#262626"/>
<path d="M18.1189 18.9682L19.7929 17.3998C20.251 16.9705 20.5731 16.4111 20.718 15.7934C20.8628 15.1758 20.8237 14.528 20.6057 13.9332L19.8904 11.9824C19.6234 11.2545 19.0948 10.658 18.4123 10.3144C17.7298 9.97089 16.9447 9.90618 16.2171 10.1335C13.5399 10.9703 11.482 13.5124 12.1154 16.532C12.532 18.5179 13.3285 21.0107 14.8394 23.6636C16.1056 25.8979 17.6984 27.9216 19.5628 29.6644C21.8016 31.746 24.9999 31.2256 27.0577 29.2659C27.6093 28.7405 27.944 28.02 27.9936 27.2511C28.0432 26.4823 27.8039 25.7231 27.3245 25.1283L26.0132 23.501C25.618 23.0103 25.0882 22.6515 24.4919 22.4705C23.8956 22.2896 23.26 22.2949 22.6667 22.4858L20.5012 23.1831C20.4177 23.0954 20.3218 22.991 20.2157 22.8707C19.7705 22.3675 19.3766 21.8193 19.0401 21.2346C18.7128 20.6444 18.4451 20.0217 18.2413 19.3762C18.1978 19.241 18.1569 19.105 18.1189 18.9682Z" fill="#FF7096"/>
</svg>
