<svg width="30" height="30" viewBox="0 0 30 30" fill="none" xmlns="http://www.w3.org/2000/svg">
<rect x="3.8147e-06" width="30" height="30" rx="15" fill="#3DCCC7"/>
<path d="M13.8713 13.7809L14.8757 12.8399C15.1506 12.5823 15.3439 12.2466 15.4308 11.8761C15.5177 11.5055 15.4942 11.1168 15.3634 10.7599L14.9342 9.5894C14.7741 9.15267 14.4569 8.79477 14.0474 8.58865C13.6378 8.38253 13.1668 8.3437 12.7302 8.48009C11.1239 8.98215 9.88921 10.5075 10.2693 12.3192C10.5192 13.5107 10.9971 15.0064 11.9037 16.5982C12.6633 17.9388 13.619 19.1529 14.7377 20.1986C16.0809 21.4476 17.9999 21.1353 19.2346 19.9596C19.5656 19.6443 19.7664 19.212 19.7962 18.7507C19.8259 18.2894 19.6823 17.8339 19.3947 17.477L18.6079 16.5006C18.3708 16.2062 18.0529 15.9909 17.6951 15.8823C17.3374 15.7738 16.956 15.777 16.6 15.8914L15.3007 16.3098C15.2506 16.2572 15.1931 16.1946 15.1294 16.1224C14.8623 15.8205 14.626 15.4916 14.4241 15.1407C14.2277 14.7867 14.0671 14.413 13.9448 14.0257C13.9187 13.9446 13.8942 13.863 13.8713 13.7809Z" fill="black"/>
</svg>
