<svg width="54" height="54" viewBox="0 0 54 54" fill="none" xmlns="http://www.w3.org/2000/svg">
<circle cx="27" cy="27" r="27" fill="#FF7096"/>
<path d="M22.8507 29.5003C21.2052 29.6213 19.7118 30.3375 18.8645 32.8894C18.7681 33.1805 18.5364 33.3572 18.2661 33.3572C17.8104 33.3572 16.4015 32.0602 16 31.747C16.0004 35.6072 17.5561 39 21.2503 39C24.3617 39 26.5002 36.9483 26.5002 33.3661C26.5002 33.2203 26.4735 33.0811 26.4604 32.9381L22.8507 29.5003ZM34.7807 15C34.1589 15 33.5761 15.3145 33.1315 15.7711C24.7476 24.3305 23.8753 24.5316 23.8753 27.0511C23.8753 27.6933 24.0086 28.3055 24.2333 28.8652L26.8509 31.358C27.1466 31.4423 27.4513 31.5 27.7692 31.5C30.3166 31.5 31.7932 29.3686 36.4299 19.4784C36.7326 18.8058 37 18.0792 37 17.3227C37 15.9675 35.9336 15 34.7807 15Z" fill="#262626"/>
</svg>
