<svg width="46" height="46" viewBox="0 0 46 46" fill="none" xmlns="http://www.w3.org/2000/svg">
<circle cx="22.8962" cy="22.6228" r="22.6228" fill="#211336"/>
<path fill-rule="evenodd" clip-rule="evenodd" d="M10.6152 22.6222C10.6154 19.8776 11.5349 17.2121 13.2271 15.0511C14.9192 12.8902 17.2865 11.3584 19.9511 10.7002C22.6156 10.042 25.4239 10.2953 27.9276 11.4198C30.4313 12.5442 32.4862 14.475 33.7643 16.9039C35.0424 19.3328 35.47 22.1198 34.9789 24.8202C34.4878 27.5205 33.1063 29.9785 31.0549 31.8019C29.0035 33.6253 26.4004 34.7089 23.661 34.8799C20.9217 35.0508 18.2041 34.2992 15.9419 32.745L11.7991 34.8164C11.6456 34.8924 11.4721 34.9184 11.303 34.8907C11.134 34.8629 10.9779 34.7828 10.8567 34.6617C10.7356 34.5405 10.6555 34.3844 10.6277 34.2154C10.6 34.0463 10.626 33.8728 10.702 33.7193L12.7734 29.5765C11.3645 27.5314 10.6117 25.1057 10.6152 22.6222ZM17.5417 17.0221L17.879 16.7961C18.2202 16.5688 18.6129 16.4306 19.0213 16.394C19.4296 16.3574 19.8407 16.4235 20.2169 16.5865C20.5931 16.7495 20.9225 17.004 21.1752 17.3269C21.4278 17.6498 21.5956 18.0308 21.6632 18.4352L21.8924 19.8058C21.9702 20.2727 21.9115 20.7521 21.7233 21.1864C21.535 21.6207 21.2253 21.9914 20.8313 22.2538L19.7539 22.971C20.4142 24.1383 21.3792 25.1044 22.5458 25.7661L23.2663 24.6887C23.5285 24.295 23.8989 23.9855 24.3329 23.7973C24.7669 23.609 25.246 23.5501 25.7126 23.6276L27.0832 23.8568C27.4875 23.9245 27.8686 24.0922 28.1915 24.3449C28.5144 24.5975 28.7689 24.9269 28.9319 25.3032C29.0948 25.6794 29.161 26.0904 29.1244 26.4987C29.0878 26.9071 28.9495 27.2998 28.7223 27.641L28.4963 27.98C28.4221 28.095 28.3203 28.1895 28.2002 28.255C28.08 28.3205 27.9454 28.3549 27.8086 28.3549H26.1711C24.9883 28.3549 23.817 28.1219 22.7243 27.6692C21.6315 27.2165 20.6386 26.553 19.8023 25.7166C18.966 24.8801 18.3027 23.8871 17.8502 22.7942C17.3977 21.7014 17.1649 20.5301 17.1651 19.3473V17.7098C17.1653 17.5728 17.1999 17.4381 17.2657 17.3179C17.3315 17.1978 17.4264 17.0961 17.5417 17.0221Z" fill="#FDC232"/>
</svg>
