<svg width="40" height="40" viewBox="0 0 40 40" fill="none" xmlns="http://www.w3.org/2000/svg">
<circle cx="20" cy="20" r="20" fill="#FF7096"/>
<path fill-rule="evenodd" clip-rule="evenodd" d="M10.562 20.2806C10.5621 18.1085 11.2898 15.9991 12.629 14.2889C13.9682 12.5788 15.8416 11.3665 17.9503 10.8456C20.059 10.3247 22.2814 10.5252 24.2629 11.4151C26.2443 12.305 27.8705 13.833 28.882 15.7552C29.8935 17.6774 30.2319 19.883 29.8432 22.0201C29.4546 24.1571 28.3613 26.1024 26.7378 27.5454C25.1143 28.9884 23.0542 29.846 20.8864 29.9812C18.7185 30.1165 16.5678 29.5217 14.7775 28.2917L11.4989 29.931C11.3774 29.9912 11.2401 30.0117 11.1063 29.9898C10.9725 29.9678 10.849 29.9044 10.7531 29.8086C10.6573 29.7127 10.5939 29.5891 10.5719 29.4554C10.5499 29.3216 10.5705 29.1842 10.6307 29.0627L12.27 25.7842C11.1549 24.1657 10.5592 22.246 10.562 20.2806ZM16.0436 15.8487L16.3105 15.6699C16.5805 15.49 16.8913 15.3806 17.2145 15.3517C17.5377 15.3227 17.8629 15.3751 18.1607 15.504C18.4584 15.633 18.7191 15.8344 18.919 16.09C19.119 16.3455 19.2517 16.6471 19.3053 16.9671L19.4867 18.0517C19.5483 18.4212 19.5018 18.8006 19.3528 19.1443C19.2038 19.488 18.9587 19.7814 18.647 19.9891L17.7943 20.5566C18.3168 21.4805 19.0805 22.2451 20.0037 22.7687L20.5739 21.916C20.7815 21.6045 21.0746 21.3595 21.4181 21.2105C21.7615 21.0616 22.1407 21.015 22.51 21.0763L23.5946 21.2577C23.9146 21.3112 24.2162 21.444 24.4717 21.6439C24.7273 21.8439 24.9287 22.1046 25.0577 22.4023C25.1866 22.7 25.239 23.0253 25.21 23.3485C25.181 23.6717 25.0716 23.9824 24.8918 24.2525L24.7129 24.5207C24.6542 24.6117 24.5737 24.6866 24.4786 24.7384C24.3835 24.7902 24.277 24.8174 24.1687 24.8175H22.8728C21.9367 24.8175 21.0098 24.6331 20.145 24.2748C19.2802 23.9166 18.4944 23.3914 17.8326 22.7295C17.1707 22.0675 16.6458 21.2816 16.2877 20.4168C15.9296 19.5519 15.7453 18.625 15.7455 17.6889V16.393C15.7457 16.2846 15.7731 16.178 15.8251 16.0829C15.8772 15.9878 15.9523 15.9073 16.0436 15.8487Z" fill="#262626"/>
</svg>
