<svg width="54" height="54" viewBox="0 0 54 54" fill="none" xmlns="http://www.w3.org/2000/svg">
<circle cx="27" cy="27" r="27" fill="#FF7096"/>
<path d="M27.1388 11C20.8411 10.9888 14.9136 14.8218 12.1932 20.8891L19.8423 20.9077V21.7664C17.487 21.4755 17.6944 22.7309 18.0278 24.0634L23.0491 36.9805L26.7397 28.1005L25.0455 23.939C24.4301 22.8243 24.4171 21.5877 21.8993 21.7042L21.9347 20.9129L33.1532 20.9409V21.8276C31.8394 21.9067 30.2579 21.4886 31.0962 24.2501L35.6336 36.4838L38.1139 29.3418C38.9261 26.3479 38.1617 23.4708 37.1965 20.6495C36.6597 18.7568 36.9101 17.1761 39.3162 16.5491C35.6435 12.7012 31.31 11.0075 27.1389 11H27.1388ZM42.3965 22.2942L35.1232 41.7539C37.1318 39.9682 39.1913 39.3183 41.7115 34.3775C43.3883 30.268 43.2157 26.461 42.3965 22.2942V22.2942ZM11.4234 22.6095C10.7135 28.3542 10.7784 30.0368 12.5357 34.7281C14.8264 39.2212 16.6028 40.1678 19.124 41.9302L11.4233 22.6095H11.4234ZM27.4227 29.8987L22.0327 43.2472C25.8161 44.3556 29.2014 44.2169 32.3005 42.9838L27.4227 29.8986V29.8987Z" fill="#262626"/>
</svg>
