<svg width="637" height="654" viewBox="0 0 637 654" fill="none" xmlns="http://www.w3.org/2000/svg">
<rect x="38" y="122" width="278" height="278" rx="5" stroke="#262626" stroke-width="10"/>
<rect x="225" y="355" width="294" height="294" rx="5" stroke="#262626" stroke-width="10"/>
<path d="M286.692 534.141C389.751 534.141 473.297 521.04 473.297 504.878C473.297 488.717 389.751 475.615 286.692 475.615C183.634 475.615 100.088 488.717 100.088 504.878C100.088 521.04 183.634 534.141 286.692 534.141Z" fill="url(#paint0_radial)"/>
<path d="M189.821 525.82C180.611 515.121 188.805 497.345 197.744 474.287C207.563 448.927 222.732 405.825 222.732 405.825L330.436 383.58C330.436 383.58 445.183 381.379 455.713 403.32C464.245 420.892 388.673 447.336 377.838 448.284L311.509 451.772L304.534 455.157L257.945 514.105L189.821 525.82Z" fill="#263238"/>
<path d="M388.266 421.298C379.903 429.804 372.11 438.853 364.938 448.385C345.537 475.472 314.827 524.669 314.827 524.669C314.827 524.669 319.601 540.244 334.262 539.566C334.262 539.566 435.161 445.338 443.422 436.636C455.916 423.431 465.938 401.66 444.337 399.866C422.735 398.071 396.663 412.224 388.266 421.298Z" fill="#263238"/>
<path d="M364.395 448.927C364.395 448.927 382.408 422.585 401.064 411.682C401.064 411.682 382.51 415.339 354.407 449.536L364.395 448.927Z" fill="#BA68C8"/>
<path opacity="0.1" d="M364.395 448.927C364.395 448.927 382.408 422.585 401.064 411.682C401.064 411.682 382.51 415.339 354.407 449.536L364.395 448.927Z" fill="black"/>
<path d="M376.652 482.244L369.576 483.598L376.145 507.875C376.145 507.875 382.51 507.265 384.711 507.401C387.917 506.64 391.004 505.443 393.886 503.845L392.193 489.015L384.406 480.889L376.652 482.244Z" fill="#FFA8A7"/>
<path d="M432.52 487.966C435.898 489.328 438.958 491.372 441.51 493.97C444.061 496.568 446.05 499.665 447.35 503.067C448.858 506.624 450.092 510.292 451.041 514.037C452.158 517.965 451.616 524.635 446.639 525.718C445.021 525.908 443.383 525.614 441.933 524.872C431.945 521.012 422.193 516.542 411.968 513.292C403.206 510.047 394.03 508.052 384.712 507.367C386.83 504.107 387.889 500.271 387.743 496.386C387.598 492.501 386.255 488.756 383.899 485.663C381.894 483.809 379.362 482.626 376.653 482.277C379.227 481.126 381.631 479.637 384.102 478.248C388.705 475.029 394.343 473.641 399.914 474.355C404.18 475.269 407.431 478.655 411.054 481.126C417.961 485.63 424.631 485.325 432.52 487.966Z" fill="#FCF6BD"/>
<path d="M204.347 502.559C213.251 499.816 227.472 497.378 269.66 495.211C311.848 493.045 369.577 483.564 369.577 483.564C379.396 493.011 376.145 507.841 376.145 507.841C376.145 507.841 301.216 531.542 276.804 534.691C237.934 539.702 224.526 539.329 206.987 535.571C187.282 531.339 174.856 511.599 204.347 502.559Z" fill="#263238"/>
<path d="M358.539 301.608L390.231 377.35L367.546 391.299L323.936 317.454L358.539 301.608Z" fill="#F28F8F"/>
<path d="M292.989 230.234C310.324 230.437 329.387 236.734 335.955 250.312L363.042 306.179C363.042 306.179 347.738 328.593 323.427 327.002L292.989 230.234Z" fill="#4F4789"/>
<path d="M177.733 347.96C177.936 345.015 182.168 330.625 186.706 315.117L219.616 326.494L210.779 354.36L183.049 380.668C177.042 370.889 175.132 359.138 177.733 347.96Z" fill="#FFA8A7"/>
<path d="M257.539 231.283C236.885 236.26 208.749 242.727 200.589 265.142C192.429 287.556 180.748 327.137 180.748 327.137C185.285 334.992 210.171 341.493 218.805 336.956L222.868 323.413V405.757C239.018 423.33 318.688 418.826 330.572 383.512V271.338C330.572 253.393 320.618 231.825 293.091 230.234L257.539 231.283Z" fill="#4F4789"/>
<path d="M222.766 323.48L233.127 290.875L222.766 338.073V323.48Z" fill="#E0E0E0"/>
<path d="M249.682 139.492C247.843 139.254 245.975 139.435 244.215 140.021C242.456 140.607 240.853 141.584 239.525 142.878C235.157 147.348 236.139 155.609 239.525 174.57L253.068 176.094L249.682 139.492Z" fill="#263238"/>
<path d="M328.269 134.007C331.169 134.02 334.039 133.432 336.7 132.281C340.831 129.91 341.914 134.617 339.646 138.68C338.146 141.609 335.921 144.106 333.183 145.932C330.445 147.757 327.284 148.851 324.003 149.108C324.003 148.533 320.143 138.578 320.143 138.578L328.269 134.007Z" fill="#263238"/>
<path d="M256.013 176.297C254.016 177.482 251.138 173.656 248.666 171.049C247.697 169.94 246.461 169.097 245.075 168.598C243.689 168.1 242.199 167.963 240.745 168.2C239.292 168.437 237.922 169.041 236.767 169.954C235.611 170.867 234.708 172.06 234.141 173.419C230.044 182.053 239.355 193.531 244.806 197.323C246.336 198.642 248.243 199.444 250.256 199.615C252.269 199.785 254.284 199.315 256.013 198.271L257.436 231.284C259.85 236.574 263.539 241.183 268.171 244.699C272.804 248.215 278.236 250.527 283.981 251.429C303.348 254.037 299.353 238.055 292.987 230.234V218.146C297.837 219.181 302.82 219.432 307.749 218.891C310.255 218.214 316.282 210.934 320.176 202.775C324.543 193.633 331.823 177.381 325.356 149.853C318.381 120.329 286.656 119.381 267.796 131.333C248.937 143.285 256.013 176.297 256.013 176.297Z" fill="#FFA8A7"/>
<path d="M256.014 179.649C254.998 179.649 251.172 173.317 248.667 171.049C245.281 167.9 249.683 139.493 249.683 139.493C249.683 139.493 246.297 128.692 253.068 121.548C259.84 114.403 273.113 115.588 282.796 115.25C294.661 115.315 306.414 112.953 317.332 108.309C331.079 102.35 332.095 101.537 333.787 107.666C335.48 113.794 336.158 127.507 327.964 136.75L323.495 144.03C323.495 144.03 319.33 147.416 306.565 149.109C293.8 150.802 271.928 143.793 269.321 143.42C265.596 142.912 264.817 146.501 262.82 156.32C260.924 164.954 259.4 179.581 256.014 179.649Z" fill="#263238"/>
<path d="M249.717 141.693L237.595 135.192C237.994 134.387 238.549 133.668 239.228 133.08C239.908 132.491 240.697 132.043 241.551 131.762C242.406 131.482 243.307 131.374 244.203 131.446C245.099 131.517 245.972 131.767 246.771 132.179C248.385 133.088 249.59 134.58 250.138 136.35C250.685 138.119 250.535 140.031 249.717 141.693Z" fill="#263238"/>
<path d="M292.953 218.146C292.953 218.146 275.008 214.524 268.744 211.375C265.058 209.442 262.038 206.445 260.077 202.775C261.029 206.457 262.71 209.911 265.02 212.932C269.591 218.79 292.953 223.09 292.953 223.09V218.146Z" fill="#F28F8F"/>
<path d="M293.53 175.62C293.503 176.323 293.271 177.004 292.86 177.576C292.45 178.148 291.881 178.587 291.223 178.838C290.565 179.089 289.849 179.141 289.161 178.987C288.474 178.834 287.848 178.482 287.359 177.975C286.871 177.468 286.542 176.829 286.414 176.136C286.286 175.444 286.365 174.73 286.64 174.082C286.915 173.434 287.375 172.881 287.962 172.492C288.549 172.104 289.237 171.896 289.941 171.896C290.421 171.904 290.895 172.008 291.335 172.2C291.776 172.392 292.174 172.668 292.507 173.014C292.84 173.36 293.102 173.768 293.278 174.215C293.453 174.662 293.539 175.14 293.53 175.62Z" fill="#263238"/>
<path d="M289.737 162.076L282.017 166.309C281.483 165.25 281.371 164.028 281.704 162.89C282.038 161.752 282.791 160.783 283.812 160.18C284.323 159.902 284.884 159.73 285.463 159.675C286.042 159.62 286.626 159.683 287.18 159.86C287.734 160.038 288.246 160.325 288.686 160.706C289.125 161.087 289.483 161.553 289.737 162.076Z" fill="#263238"/>
<path d="M291.397 199.66L299.625 202.775C299.442 203.324 299.151 203.831 298.77 204.266C298.388 204.701 297.923 205.055 297.403 205.308C296.882 205.56 296.316 205.706 295.738 205.736C295.16 205.766 294.582 205.68 294.038 205.484C292.929 205.044 292.034 204.191 291.542 203.105C291.049 202.019 290.997 200.784 291.397 199.66Z" fill="#F28F8F"/>
<path d="M325.594 165.056L318.585 159.639C318.917 159.168 319.341 158.77 319.831 158.468C320.322 158.166 320.868 157.966 321.437 157.88C322.007 157.795 322.588 157.826 323.145 157.971C323.702 158.116 324.224 158.372 324.68 158.724C325.616 159.461 326.233 160.529 326.403 161.707C326.573 162.886 326.283 164.085 325.594 165.056Z" fill="#263238"/>
<path d="M323.426 174.604C323.4 175.308 323.167 175.988 322.757 176.56C322.347 177.132 321.777 177.571 321.12 177.822C320.462 178.073 319.745 178.125 319.058 177.972C318.371 177.818 317.744 177.466 317.256 176.959C316.767 176.452 316.439 175.813 316.311 175.121C316.183 174.428 316.261 173.714 316.536 173.066C316.812 172.418 317.271 171.865 317.858 171.476C318.445 171.088 319.133 170.88 319.837 170.88C320.318 170.889 320.791 170.992 321.232 171.184C321.672 171.376 322.07 171.653 322.403 171.998C322.737 172.344 322.999 172.753 323.174 173.2C323.35 173.647 323.435 174.124 323.426 174.604Z" fill="#263238"/>
<path d="M306.497 174.164L303.111 195.562L314.962 194.174L306.497 174.164Z" fill="#F28F8F"/>
<path d="M210.78 354.292C210.78 354.292 232.754 438.938 242.031 444.999C251.308 451.06 268.576 455.495 276.838 458.543C285.099 461.59 288.858 465.755 287.436 466.906C286.013 468.057 274.095 469.31 269.965 470.766C265.834 472.221 271.183 478.892 280.325 485.968C289.467 493.045 297.255 492.401 296.239 497.108C295.223 501.814 274.84 506.52 257.64 496.43C240.44 486.341 235.226 472.729 224.966 461.184C214.707 449.638 191.277 401.66 183.049 380.668C183.049 380.668 183.828 341.662 196.593 344.134C209.357 346.606 210.78 354.292 210.78 354.292Z" fill="#FFA8A7"/>
<path d="M315.335 525.82C316.892 529.579 322.276 539.939 334.262 539.364L363.719 511.803L315.335 525.82Z" fill="#263238"/>
<path d="M333.111 542.648C333.125 542.772 333.125 542.897 333.111 543.021C333.125 542.897 333.125 542.772 333.111 542.648Z" fill="#263238"/>
<path d="M324.24 574.305C323.956 565.44 325.417 556.604 328.54 548.302C327.121 549.292 325.486 549.926 323.77 550.15C322.055 550.374 320.312 550.181 318.687 549.589C308.834 546.643 306.362 532.896 307.92 529.917C306.498 531.169 305.008 532.355 303.552 533.573C298.882 536.708 295.56 541.481 294.241 546.948C293.564 551.248 295.561 555.48 296.543 559.746C298.439 567.872 296.543 576.337 296.238 584.666C296.307 588.301 297.121 591.883 298.629 595.191C300.138 598.499 302.309 601.462 305.008 603.898C307.783 606.606 310.773 609.085 313.947 611.313C315.101 612.611 316.631 613.519 318.324 613.912C320.016 614.304 321.789 614.162 323.398 613.505C325.006 612.847 326.371 611.707 327.304 610.241C328.237 608.775 328.693 607.056 328.607 605.32C327.321 594.756 324.849 585.309 324.24 574.305Z" fill="#FCF6BD"/>
<path d="M335.414 537.603C334.499 539.33 333.687 540.989 332.976 542.648C333.822 541.022 334.635 539.33 335.414 537.603Z" fill="#37474F"/>
<path d="M307.852 529.917L308.495 529.341L307.852 529.917Z" fill="#37474F"/>
<path d="M281.974 483.972V367.703C282.079 365.497 282.766 363.358 283.965 361.506L356.082 260.769C357.398 258.928 359.231 257.522 361.346 256.73C363.461 255.937 365.763 255.794 367.96 256.318L435.777 272.489C437.962 273.073 440.07 273.916 442.057 275L445.39 276.929C446.247 277.494 446.96 278.253 447.472 279.145C447.984 280.037 448.28 281.037 448.337 282.064V398.333C448.278 399.36 447.981 400.36 447.47 401.251C446.958 402.143 446.246 402.902 445.39 403.469L294.17 491.036C293.255 491.5 292.243 491.742 291.218 491.742C290.192 491.742 289.181 491.5 288.265 491.036L284.932 489.107C284.072 488.544 283.356 487.785 282.843 486.893C282.329 486.001 282.031 485.001 281.974 483.972Z" fill="#201335"/>
<path d="M295.463 311.645V460.078C295.463 461.962 296.799 462.738 298.431 461.791L440.873 379.582C441.738 379.02 442.457 378.262 442.973 377.369C443.489 376.476 443.786 375.473 443.841 374.444V226.011C443.841 224.115 442.517 223.35 440.873 224.298L298.431 306.507C297.567 307.07 296.848 307.828 296.332 308.721C295.817 309.614 295.519 310.616 295.463 311.645Z" fill="#FAFAFA"/>
<path d="M297.026 462.838C296.657 462.84 296.295 462.746 295.975 462.564C295.584 462.303 295.271 461.941 295.07 461.517C294.869 461.092 294.787 460.621 294.833 460.153V311.664C294.887 310.532 295.211 309.429 295.777 308.448C296.343 307.467 297.135 306.634 298.088 306.021L440.625 223.781C440.997 223.478 441.453 223.295 441.931 223.257C442.409 223.219 442.888 223.327 443.303 223.568C443.718 223.808 444.051 224.169 444.256 224.603C444.461 225.037 444.529 225.523 444.452 225.997V374.486C444.398 375.617 444.075 376.718 443.509 377.698C442.942 378.677 442.149 379.507 441.196 380.117L298.659 462.358C298.167 462.66 297.603 462.825 297.026 462.838ZM442.213 224.363C441.844 224.384 441.486 224.498 441.173 224.694L298.636 306.992C297.86 307.507 297.214 308.195 296.748 309.001C296.283 309.808 296.01 310.711 295.952 311.641V460.131C295.884 460.398 295.904 460.681 296.012 460.936C296.119 461.191 296.306 461.404 296.546 461.542C296.785 461.681 297.063 461.737 297.337 461.703C297.611 461.669 297.867 461.546 298.065 461.353L440.602 379.112C441.379 378.598 442.025 377.91 442.491 377.104C442.957 376.297 443.229 375.393 443.286 374.463V225.974C443.319 225.706 443.282 225.434 443.18 225.184C443.078 224.934 442.914 224.715 442.704 224.546C442.56 224.442 442.39 224.378 442.213 224.363Z" fill="#E0E0E0"/>
<path d="M448.336 282.038V398.143C448.298 399.205 447.98 400.239 447.413 401.14C446.976 401.898 446.386 402.558 445.681 403.077L445.567 403.146L445.374 403.271L293.919 490.714C293.63 490.919 293.293 491.047 292.94 491.087C292.588 491.127 292.231 491.077 291.902 490.942C291.582 490.736 291.326 490.444 291.162 490.1C290.999 489.755 290.936 489.372 290.979 488.993V372.9C290.954 372.484 291.029 372.068 291.199 371.688C291.369 371.308 291.629 370.975 291.956 370.717C292.283 370.46 292.668 370.285 293.078 370.209C293.487 370.132 293.909 370.156 294.307 370.279L357.961 385.424L366.302 387.407C367.288 387.594 368.307 387.507 369.247 387.155C370.187 386.804 371.013 386.201 371.635 385.413L381.298 371.954L446.342 281.388C447.436 279.884 448.336 280.146 448.336 282.038Z" fill="#201335"/>
<path d="M445.396 403.572L445.589 403.446L445.702 403.378C446.405 402.858 446.992 402.199 447.428 401.44C447.98 400.551 448.293 399.534 448.337 398.488L381.535 372.27L426.27 414.663L445.396 403.572Z" fill="#4F4789"/>
<path d="M290.989 489.63C290.945 490.01 291.009 490.394 291.173 490.739C291.337 491.085 291.595 491.377 291.918 491.584C292.248 491.719 292.607 491.769 292.962 491.729C293.317 491.689 293.656 491.561 293.948 491.356L346.426 461.169L358.41 385.758L290.966 487.676L290.989 489.63Z" fill="#4F4789"/>
<path d="M447.693 401.058C447.256 401.817 446.667 402.477 445.962 402.997L445.848 403.065L294.266 490.714C293.976 490.919 293.64 491.047 293.287 491.087C292.935 491.127 292.578 491.077 292.25 490.942L364.738 375.051C366.191 372.728 368.431 371.007 371.048 370.202C373.664 369.398 376.483 369.564 378.987 370.67L447.693 401.058Z" fill="#201335"/>
<path d="M358.112 345.836C356.772 346.042 355.402 345.921 354.12 345.484C352.838 345.047 351.682 344.306 350.752 343.326C349.007 341.398 348.135 338.421 348.135 334.416C348.137 329.898 349.112 325.432 350.993 321.319C352.925 317.086 355.591 313.224 358.87 309.91C362.395 306.277 366.414 303.152 370.81 300.624C375.12 298.159 378.798 296.794 381.844 296.528C384.91 296.254 387.217 297.041 388.802 298.867C390.386 300.692 391.167 303.487 391.167 307.229C391.234 310.94 390.349 314.607 388.595 317.885C387.05 320.853 384.694 323.328 381.798 325.027C380.798 325.733 379.573 326.049 378.354 325.917C377.92 325.831 377.52 325.623 377.202 325.318C376.885 325.012 376.663 324.622 376.563 324.194C375.607 325.991 374.392 327.64 372.957 329.088C371.506 330.576 369.852 331.855 368.043 332.887C364.92 334.644 362.429 335.169 360.592 334.564C358.755 333.96 357.882 332.112 357.882 329.031C357.909 325.16 359.109 321.387 361.327 318.204C363.741 314.676 366.949 311.754 370.696 309.671C372.26 308.745 373.961 308.067 375.736 307.663C377.055 307.307 378.446 307.307 379.766 307.663V319.676C379.766 320.646 379.938 321.239 380.271 321.467C380.604 321.695 381.155 321.581 381.936 321.136C383.39 320.196 384.467 318.779 384.979 317.132C385.755 314.907 386.124 312.561 386.069 310.207C386.069 307.21 385.411 305.031 384.094 303.67C383.391 302.986 382.533 302.48 381.592 302.194C380.651 301.909 379.655 301.851 378.687 302.027C375.884 302.452 373.199 303.446 370.799 304.947C365.723 307.745 361.347 311.645 357.997 316.356C354.901 320.777 353.257 326.041 353.29 331.427C353.29 334.705 353.967 337.097 355.322 338.603C356.024 339.357 356.904 339.926 357.881 340.261C358.859 340.595 359.904 340.684 360.925 340.52C363.782 340.118 366.521 339.118 368.962 337.588C370.646 336.62 372.241 335.505 373.727 334.256C375.11 333.122 376.369 331.844 377.481 330.446C377.596 330.299 377.732 330.168 377.883 330.058C377.986 330.001 378.09 330.058 378.181 330.195L379.444 332.477C379.491 332.567 379.525 332.663 379.548 332.762C379.508 333.016 379.382 333.249 379.192 333.424C377.805 335.081 376.267 336.609 374.599 337.987C372.843 339.451 370.965 340.764 368.985 341.912C365.687 343.981 361.978 345.32 358.112 345.836ZM373.038 324.388C374.131 323.106 374.768 321.502 374.852 319.824V312.865C373.213 313.003 371.635 313.544 370.259 314.439C368.069 315.664 366.204 317.388 364.817 319.471C363.516 321.381 362.817 323.633 362.808 325.939C362.808 327.868 363.29 329.02 364.266 329.362C365.242 329.704 366.746 329.362 368.801 328.141C370.465 327.185 371.921 325.909 373.084 324.388H373.038Z" fill="#E0E0E0"/>
<defs>
<radialGradient id="paint0_radial" cx="0" cy="0" r="1" gradientUnits="userSpaceOnUse" gradientTransform="translate(286.692 504.878) rotate(90) scale(29.263 186.605)">
<stop stop-color="#201335" stop-opacity="0.56"/>
<stop offset="1" stop-color="#201335" stop-opacity="0"/>
</radialGradient>
</defs>
</svg>
