<svg xmlns="http://www.w3.org/2000/svg" viewBox="0 0 16 16"><defs><style>.cls-1{fill:#4ec2c1;}.cls-2{fill:#231f20;}</style></defs><title>Asset 3</title><g id="Layer_2" data-name="Layer 2"><g id="Layer_1-2" data-name="Layer 1"><circle class="cls-1" cx="8" cy="8" r="8"/><circle class="cls-2" cx="8" cy="8" r="7.71"/><path class="cls-1" d="M9,7.1a.92.92,0,0,0-.62.2.81.81,0,0,0-.24.63l.43.6V8a.45.45,0,0,1,.12-.36A.47.47,0,0,1,9,7.51a.35.35,0,0,1,.31.17,1.4,1.4,0,0,1,.11.68,5.39,5.39,0,0,1-.1,1.21L9.6,10a4.16,4.16,0,0,0,.25-1.6Q9.85,7.1,9,7.1Z"/><path class="cls-1" d="M10.7,8.37a2.37,2.37,0,0,0-.47-1.61A1.57,1.57,0,0,0,9,6.23a1.76,1.76,0,0,0-1.23.43A1.3,1.3,0,0,0,7.49,7l.29.41A1,1,0,0,1,8.07,7,1.36,1.36,0,0,1,9,6.65a1.16,1.16,0,0,1,.93.41,2,2,0,0,1,.35,1.31,4,4,0,0,1-.41,2l.26.36a3.17,3.17,0,0,0,.4-.93A5.37,5.37,0,0,0,10.7,8.37Z"/><path class="cls-1" d="M7.43,8.46a.44.44,0,0,1-.11.35A.47.47,0,0,1,7,8.91a.35.35,0,0,1-.31-.17A1.4,1.4,0,0,1,6.58,8a6.73,6.73,0,0,1,.05-.94l-.31-.44A4.68,4.68,0,0,0,6.15,8q0,1.27.85,1.27a.92.92,0,0,0,.62-.2.65.65,0,0,0,.2-.34l-.39-.55Z"/><path class="cls-1" d="M7.47,6.35A2.18,2.18,0,0,1,9,5.8a2,2,0,0,1,1.53.66,2.75,2.75,0,0,1,.6,1.91A5.54,5.54,0,0,1,10.91,10a3.59,3.59,0,0,1-.53,1.11l.25.36a3.89,3.89,0,0,0,.66-1.28,5.84,5.84,0,0,0,.26-1.77,3.14,3.14,0,0,0-.73-2.21A2.39,2.39,0,0,0,9,5.37a2.59,2.59,0,0,0-1.83.68A2.19,2.19,0,0,0,7,6.28l.26.36A1.71,1.71,0,0,1,7.47,6.35Z"/><path class="cls-1" d="M4.7,6.28A5.81,5.81,0,0,0,4.44,8a3.14,3.14,0,0,0,.73,2.21A2.39,2.39,0,0,0,7,11a2.57,2.57,0,0,0,1.83-.68l.07-.07-.25-.35-.12.12A2.17,2.17,0,0,1,7,10.62,2,2,0,0,1,5.47,10,2.75,2.75,0,0,1,4.87,8a5.51,5.51,0,0,1,.22-1.58,3.78,3.78,0,0,1,.41-.94l-.26-.36A4,4,0,0,0,4.7,6.28Z"/><path class="cls-1" d="M5.3,8a2.37,2.37,0,0,0,.47,1.61A1.57,1.57,0,0,0,7,10.19a1.76,1.76,0,0,0,1.23-.43,1.27,1.27,0,0,0,.16-.18l-.27-.37a.87.87,0,0,1-.2.25A1.36,1.36,0,0,1,7,9.77a1.16,1.16,0,0,1-.93-.41A2,2,0,0,1,5.72,8,4.33,4.33,0,0,1,6,6.28L5.76,5.9a3.39,3.39,0,0,0-.29.75A5.34,5.34,0,0,0,5.3,8Z"/></g></g></svg>