<svg width="26" height="22" viewBox="0 0 26 22" fill="none" xmlns="http://www.w3.org/2000/svg">
<path d="M7.07406 18.8992C8.73094 19.1638 10.1275 18.7102 11.2636 17.5256C11.8198 16.946 12.2814 16.1899 12.6483 15.2952L11.7962 14.0729C11.4766 15.1062 11.0624 15.9127 10.5298 16.5049C9.66589 17.4626 8.56525 17.8281 7.23975 17.6265C6.00892 17.4248 5.09764 16.6183 4.48223 15.1818C3.86682 13.7326 3.73663 11.7668 4.09167 9.28437C4.32837 7.6336 4.74259 6.12144 5.33433 4.7605L4.5414 3.61377C4.48223 3.72718 4.43489 3.8406 4.37571 3.95401C3.66562 5.50397 3.16855 7.21775 2.90819 9.09535C2.5058 11.9181 2.71883 14.1989 3.53544 15.9253C4.35205 17.6643 5.52369 18.6472 7.07406 18.8992Z" fill="#FF7096"/>
<path d="M7.59062 16.2248C9.22162 16.4888 10.2979 15.3488 10.8415 12.8046L9.92063 11.4605L9.89843 11.5805C9.70981 12.9486 9.45462 13.8847 9.12176 14.4007C8.8 14.9047 8.334 15.1207 7.74595 15.0247C7.23557 14.9407 6.88052 14.4847 6.66971 13.6447C6.4589 12.8046 6.46999 11.5445 6.70299 9.86443C6.82504 8.98838 6.99147 8.19633 7.19119 7.47629L6.40342 6.32422C6.02618 7.35628 5.7599 8.47235 5.59347 9.69642C5.31608 11.7245 5.37156 13.2966 5.77099 14.4007C6.15933 15.4808 6.76957 16.0928 7.59062 16.2248Z" fill="#FF7096"/>
<path d="M11.6918 5.48887C12.1593 4.40262 12.7586 3.52155 13.4897 2.83359C14.9041 1.53009 16.6181 1.02317 18.6437 1.32491C20.5614 1.61457 22.0237 2.72496 23.0425 4.65607C24.0613 6.58718 24.337 9.0735 23.8815 12.115C23.5819 14.0823 23.0305 15.8927 22.2155 17.5342C21.9878 17.9928 21.7361 18.4273 21.4724 18.8377L22.2275 19.8757C22.5751 19.3687 22.8987 18.8377 23.1984 18.2584C24.1333 16.46 24.7565 14.4806 25.0801 12.296C25.3318 10.5701 25.3678 8.97694 25.164 7.50447C24.9483 6.03199 24.5528 4.78884 23.9654 3.775C23.3781 2.7491 22.635 1.92838 21.76 1.30076C20.8851 0.673153 19.9022 0.274865 18.8115 0.105893C16.4383 -0.256191 14.4246 0.311074 12.7586 1.79562C11.9915 2.47151 11.3562 3.31637 10.8408 4.34227L11.6918 5.48887Z" fill="#FF7096"/>
<path d="M15.677 10.2165C15.8912 8.81852 16.1809 7.86201 16.5589 7.3347C16.9368 6.80739 17.4533 6.59892 18.121 6.69702C18.7005 6.78286 19.1036 7.24886 19.3429 8.10727C19.5823 8.96568 19.5697 10.2533 19.3051 11.9701C19.1162 13.1596 18.8516 14.2142 18.5115 15.1217L19.3807 16.2622C19.4059 16.2131 19.4185 16.1763 19.4437 16.1273C19.9728 14.9255 20.3507 13.6011 20.5775 12.1418C20.8924 10.0694 20.842 8.47516 20.4011 7.35923C19.9476 6.23103 19.2548 5.59336 18.3099 5.45846C16.2943 5.16415 15.0094 6.59892 14.4551 9.77504L15.5259 11.1975L15.677 10.2165Z" fill="#FF7096"/>
<path d="M13.6222 16.6818C13.1935 17.5137 12.6791 18.209 12.079 18.7802C10.6338 20.1211 8.88241 20.6426 6.81258 20.3322C4.85298 20.0342 3.35878 18.8919 2.31774 16.9053C1.27671 14.9187 0.995014 12.361 1.46042 9.23206C1.76661 7.20821 2.32999 5.34577 3.17507 3.65716C3.30979 3.39642 3.43227 3.14809 3.57924 2.89976L2.78316 1.80713C2.5627 2.15478 2.35449 2.52728 2.15853 2.91218C1.19098 4.76221 0.541863 6.79848 0.21118 9.03341C-0.0460175 10.8089 -0.0705125 12.4479 0.149943 13.9627C0.35815 15.4775 0.762318 16.7563 1.37469 17.8117C1.97482 18.8547 2.70967 19.699 3.61598 20.3446C4.51005 20.9903 5.51434 21.4 6.62887 21.5739C9.05387 21.9463 11.1237 21.3628 12.8384 19.8356C13.463 19.2768 14.0019 18.6064 14.455 17.8241L13.6222 16.6818Z" fill="#FF7096"/>
<path d="M18.6564 4.01535C19.9663 4.2092 20.9361 4.99668 21.5911 6.37781C22.246 7.75893 22.3846 9.63677 22.0067 12.0235C21.7548 13.6469 21.3014 15.1249 20.6464 16.4576C20.5582 16.6393 20.4701 16.8089 20.3693 16.9907L21.2006 18.0689C21.3769 17.7782 21.5407 17.4874 21.7044 17.1724C22.4727 15.6701 22.9891 14.0225 23.2788 12.2052C23.7071 9.49139 23.4803 7.29855 22.6239 5.63878C21.7548 3.979 20.4953 3.02191 18.8453 2.77961C17.082 2.52519 15.5957 2.97345 14.3992 4.11227C13.6561 4.80284 13.0767 5.74781 12.6484 6.91087L13.5931 8.1345C13.9457 6.78972 14.4747 5.77205 15.1675 5.08149C16.0743 4.17285 17.2457 3.8094 18.6564 4.01535Z" fill="#FF7096"/>
</svg>
