<svg width="26" height="22" viewBox="0 0 26 22" fill="none" xmlns="http://www.w3.org/2000/svg">
<path d="M7.07406 18.8992C8.73094 19.1638 10.1275 18.7102 11.2636 17.5257C11.8198 16.946 12.2814 16.1899 12.6483 15.2952L11.7962 14.0729C11.4766 15.1062 11.0624 15.9127 10.5298 16.5049C9.66589 17.4626 8.56525 17.8281 7.23975 17.6265C6.00892 17.4248 5.09764 16.6183 4.48223 15.1818C3.86682 13.7326 3.73663 11.7668 4.09167 9.28437C4.32837 7.6336 4.74259 6.12144 5.33433 4.7605L4.5414 3.61377C4.48223 3.72718 4.43489 3.8406 4.37571 3.95401C3.66562 5.50397 3.16855 7.21775 2.90819 9.09535C2.5058 11.9181 2.71883 14.1989 3.53544 15.9253C4.35205 17.6643 5.52369 18.6472 7.07406 18.8992Z" fill="#FF7096"/>
<path d="M7.59037 16.2248C9.22138 16.4888 10.2976 15.3488 10.8413 12.8046L9.92038 11.4605L9.89819 11.5805C9.70957 12.9486 9.45438 13.8847 9.12152 14.4007C8.79976 14.9047 8.33376 15.1207 7.74571 15.0247C7.23533 14.9407 6.88028 14.4847 6.66947 13.6447C6.45866 12.8046 6.46975 11.5445 6.70275 9.86443C6.8248 8.98838 6.99123 8.19633 7.19095 7.47629L6.40318 6.32422C6.02594 7.35628 5.75965 8.47235 5.59322 9.69642C5.31584 11.7245 5.37132 13.2966 5.77075 14.4007C6.15909 15.4808 6.76932 16.0928 7.59037 16.2248Z" fill="#FF7096"/>
<path d="M11.6921 5.48887C12.1595 4.40262 12.7588 3.52155 13.49 2.83359C14.9043 1.53009 16.6183 1.02317 18.6439 1.32491C20.5617 1.61457 22.024 2.72496 23.0428 4.65607C24.0616 6.58718 24.3373 9.0735 23.8818 12.115C23.5821 14.0823 23.0308 15.8927 22.2157 17.5342C21.988 17.9928 21.7363 18.4273 21.4726 18.8377L22.2277 19.8757C22.5753 19.3687 22.8989 18.8377 23.1986 18.2583C24.1335 16.46 24.7568 14.4806 25.0804 12.296C25.3321 10.5701 25.3681 8.97694 25.1643 7.50447C24.9485 6.03199 24.553 4.78884 23.9657 3.775C23.3784 2.7491 22.6353 1.92838 21.7603 1.30076C20.8853 0.673153 19.9025 0.274865 18.8117 0.105893C16.4385 -0.256191 14.4249 0.311074 12.7588 1.79562C11.9917 2.47151 11.3565 3.31637 10.8411 4.34227L11.6921 5.48887Z" fill="#FF7096"/>
<path d="M15.6773 10.2165C15.8914 8.81852 16.1812 7.86201 16.5591 7.3347C16.937 6.80739 17.4535 6.59892 18.1212 6.69702C18.7007 6.78286 19.1038 7.24886 19.3432 8.10727C19.5825 8.96568 19.5699 10.2533 19.3054 11.9701C19.1164 13.1596 18.8519 14.2142 18.5117 15.1217L19.381 16.2622C19.4062 16.2131 19.4188 16.1763 19.444 16.1273C19.9731 14.9255 20.351 13.6011 20.5777 12.1418C20.8927 10.0694 20.8423 8.47516 20.4014 7.35923C19.9479 6.23103 19.255 5.59336 18.3102 5.45846C16.2946 5.16415 15.0096 6.59892 14.4553 9.77504L15.5261 11.1975L15.6773 10.2165Z" fill="#FF7096"/>
<path d="M13.6222 16.6818C13.1935 17.5137 12.6791 18.209 12.079 18.7802C10.6338 20.1211 8.88241 20.6426 6.81258 20.3322C4.85298 20.0342 3.35878 18.8919 2.31774 16.9053C1.27671 14.9187 0.995014 12.361 1.46042 9.23206C1.76661 7.20821 2.32999 5.34577 3.17507 3.65716C3.30979 3.39642 3.43227 3.14809 3.57924 2.89976L2.78316 1.80713C2.5627 2.15478 2.35449 2.52728 2.15853 2.91218C1.19098 4.76221 0.541863 6.79848 0.21118 9.03341C-0.0460175 10.8089 -0.0705125 12.4479 0.149943 13.9627C0.35815 15.4775 0.762318 16.7563 1.37469 17.8117C1.97482 18.8547 2.70967 19.699 3.61598 20.3446C4.51005 20.9903 5.51434 21.4 6.62887 21.5739C9.05387 21.9463 11.1237 21.3628 12.8384 19.8356C13.463 19.2768 14.0019 18.6064 14.455 17.8241L13.6222 16.6818Z" fill="#FF7096"/>
<path d="M18.6561 4.01535C19.966 4.2092 20.9359 4.99668 21.5908 6.37781C22.2458 7.75893 22.3843 9.63678 22.0065 12.0235C21.7545 13.6469 21.3011 15.1249 20.6462 16.4576C20.558 16.6393 20.4698 16.8089 20.3691 16.9907L21.2004 18.0689C21.3767 17.7782 21.5404 17.4874 21.7042 17.1724C22.4725 15.6701 22.9889 14.0225 23.2786 12.2052C23.7068 9.49139 23.4801 7.29855 22.6236 5.63878C21.7546 3.979 20.495 3.02191 18.8451 2.77961C17.0817 2.52519 15.5955 2.97345 14.3989 4.11227C13.6558 4.80284 13.0764 5.74781 12.6482 6.91087L13.5928 8.1345C13.9455 6.78972 14.4745 5.77205 15.1672 5.08149C16.0741 4.17285 17.2455 3.8094 18.6561 4.01535Z" fill="#FF7096"/>
</svg>
