<svg width="80" height="34" viewBox="0 0 80 34" fill="none" xmlns="http://www.w3.org/2000/svg">
<path d="M18.5625 14.9389V17.6108C18.5625 20.8921 17.8984 23.4155 16.5703 25.1811C15.2266 26.9467 13.3828 27.8296 11.0391 27.8296C8.8516 27.8296 7.0313 26.7905 5.5781 24.7124C4.1094 22.6342 3.375 19.7202 3.375 15.9702C3.375 13.4702 3.7188 11.1421 4.4063 8.98584C5.0938 6.81397 6.0625 5.00928 7.3125 3.57178L8.3672 4.88428C7.3203 6.16553 6.5078 7.7749 5.9297 9.7124C5.3516 11.6499 5.0625 13.7358 5.0625 15.9702C5.0625 19.2671 5.625 21.7905 6.75 23.5405C7.875 25.2749 9.3047 26.1421 11.0391 26.1421C12.9141 26.1421 14.3594 25.4311 15.375 24.0092C16.375 22.5717 16.875 20.4389 16.875 17.6108V15.0327C16.875 11.7046 17.5469 9.15772 18.8906 7.39209C20.2188 5.61084 22.0547 4.72022 24.3984 4.72022C26.5859 4.72022 28.4141 5.75928 29.8828 7.8374C31.3359 9.91553 32.0625 12.8296 32.0625 16.5796C32.0625 19.0796 31.7188 21.4155 31.0313 23.5874C30.3438 25.7436 29.375 27.5405 28.125 28.978L27.0703 27.6655C28.1172 26.3842 28.9297 24.7749 29.5078 22.8374C30.0859 20.8999 30.375 18.8139 30.375 16.5796C30.375 13.2827 29.8125 10.7671 28.6875 9.03272C27.5625 7.28272 26.1328 6.40772 24.3984 6.40772C22.5234 6.40772 21.0859 7.12647 20.0859 8.56397C19.0703 9.98583 18.5625 12.1108 18.5625 14.9389ZM21.9375 14.9389V17.6108C21.9375 21.9546 20.9531 25.3061 18.9844 27.6655C17 30.0249 14.3516 31.2046 11.0391 31.2046C9.5234 31.2046 8.1016 30.8686 6.7734 30.1967C5.4453 29.5249 4.2813 28.5639 3.2813 27.3139C2.2656 26.0483 1.4688 24.4389 0.8906 22.4858C0.2969 20.5327 0 18.3608 0 15.9702C0 12.9546 0.460901 10.1342 1.3828 7.50928C2.2891 4.88428 3.5625 2.69678 5.2031 0.946777L6.2109 2.30615C4.7734 3.8999 3.6641 5.89209 2.8828 8.28272C2.0859 10.6733 1.6875 13.2358 1.6875 15.9702C1.6875 20.1889 2.5781 23.5014 4.3594 25.9077C6.1406 28.3139 8.3672 29.5171 11.0391 29.5171C13.8672 29.5171 16.1094 28.4858 17.7656 26.4233C19.4219 24.3608 20.25 21.4233 20.25 17.6108V15.0327C20.25 10.4077 21.6328 8.09522 24.3984 8.09522C25.6484 8.09522 26.6797 8.80615 27.4922 10.228C28.2891 11.6342 28.6875 13.7514 28.6875 16.5796C28.6875 18.5639 28.4609 20.4077 28.0078 22.1108C27.5391 23.8139 26.875 25.2202 26.0156 26.3296L24.9844 24.9936C26.3281 23.0405 27 20.2358 27 16.5796C27 14.2358 26.7578 12.5171 26.2734 11.4233C25.7891 10.3296 25.1641 9.78273 24.3984 9.78273C23.5078 9.78273 22.875 10.1655 22.5 10.9311C22.125 11.6967 21.9375 13.0327 21.9375 14.9389ZM15.1875 14.9389V17.6108C15.1875 22.1733 13.8047 24.4546 11.0391 24.4546C9.7891 24.4546 8.7656 23.7514 7.9688 22.3452C7.1563 20.9233 6.75 18.7983 6.75 15.9702C6.75 13.9858 6.9844 12.1421 7.4531 10.4389C7.9063 8.73584 8.5625 7.32959 9.4219 6.22022L10.4531 7.55615C9.1094 9.50928 8.4375 12.3139 8.4375 15.9702C8.4375 18.3139 8.6797 20.0327 9.1641 21.1264C9.6484 22.2202 10.2734 22.7671 11.0391 22.7671C11.9297 22.7671 12.5625 22.3842 12.9375 21.6186C13.3125 20.853 13.5 19.5171 13.5 17.6108V14.9389C13.5 10.5952 14.4922 7.24365 16.4766 4.88428C18.4453 2.5249 21.0859 1.34522 24.3984 1.34522C25.9141 1.34522 27.3359 1.68115 28.6641 2.35303C29.9922 3.0249 31.1641 3.99365 32.1797 5.25928C33.1797 6.50928 33.9766 8.11084 34.5703 10.0639C35.1484 12.0171 35.4375 14.1889 35.4375 16.5796C35.4375 19.5952 34.9844 22.4155 34.0781 25.0405C33.1563 27.6655 31.875 29.853 30.2344 31.603L29.2266 30.2436C30.6641 28.6499 31.7813 26.6577 32.5781 24.2671C33.3594 21.8764 33.75 19.3139 33.75 16.5796C33.75 12.3608 32.8594 9.04834 31.0781 6.64209C29.2969 4.23584 27.0703 3.03272 24.3984 3.03272C21.5703 3.03272 19.3281 4.06397 17.6719 6.12647C16.0156 8.18897 15.1875 11.1264 15.1875 14.9389Z" fill="#201335"/>
<path d="M5.65546 -0.000187608L0.859375 4.7959L29.7237 33.6602L34.5198 28.8641L5.65546 -0.000187608Z" fill="white"/>
<path d="M63.2423 20.7122C63.2423 21.6882 62.9863 22.5682 62.4743 23.3522C61.9783 24.1362 61.2503 24.7602 60.2903 25.2242C59.3303 25.6722 58.1863 25.8962 56.8583 25.8962C54.8263 25.8962 53.1463 25.4242 51.8183 24.4802C50.5063 23.5202 49.7943 22.1202 49.6823 20.2802H55.3463C55.4263 21.2562 55.8583 21.7442 56.6423 21.7442C56.9143 21.7442 57.1303 21.6722 57.2903 21.5282C57.4663 21.3842 57.5543 21.1762 57.5543 20.9042C57.5543 20.5042 57.3463 20.1922 56.9303 19.9682C56.5303 19.7282 55.8743 19.4562 54.9623 19.1522C53.8903 18.8002 52.9943 18.4402 52.2743 18.0722C51.5703 17.7042 50.9543 17.1602 50.4263 16.4402C49.8983 15.7202 49.6343 14.7842 49.6343 13.6322C49.6343 12.5282 49.9143 11.5922 50.4743 10.8242C51.0503 10.0402 51.8263 9.44824 52.8023 9.04824C53.7943 8.64824 54.9063 8.44824 56.1383 8.44824C58.1703 8.44824 59.7863 8.92024 60.9863 9.86424C62.1863 10.8082 62.8423 12.1682 62.9543 13.9442H57.2183C57.1383 13.0482 56.7703 12.6002 56.1143 12.6002C55.8903 12.6002 55.7063 12.6722 55.5623 12.8162C55.4183 12.9442 55.3463 13.1442 55.3463 13.4162C55.3463 13.7842 55.5463 14.0882 55.9463 14.3282C56.3623 14.5522 57.0023 14.8162 57.8663 15.1202C58.9543 15.5042 59.8503 15.8882 60.5543 16.2722C61.2743 16.6402 61.8983 17.1922 62.4263 17.9282C62.9703 18.6482 63.2423 19.5762 63.2423 20.7122ZM76.4903 17.0162C77.5143 17.2562 78.3063 17.7522 78.8664 18.5042C79.4424 19.2402 79.7304 20.0962 79.7304 21.0722C79.7304 22.5602 79.2344 23.7122 78.2423 24.5282C77.2663 25.3282 75.8583 25.7282 74.0183 25.7282H65.1143V8.73624H73.7783C75.5063 8.73624 76.8663 9.11224 77.8583 9.86424C78.8504 10.6162 79.3464 11.7122 79.3464 13.1522C79.3464 14.1442 79.0824 14.9842 78.5543 15.6722C78.0423 16.3442 77.3543 16.7922 76.4903 17.0162ZM70.4423 15.3602H72.5063C72.9863 15.3602 73.3383 15.2642 73.5623 15.0722C73.8023 14.8802 73.9223 14.5842 73.9223 14.1842C73.9223 13.7682 73.8023 13.4642 73.5623 13.2722C73.3383 13.0642 72.9863 12.9602 72.5063 12.9602H70.4423V15.3602ZM72.8663 21.4562C73.3463 21.4562 73.6983 21.3682 73.9223 21.1922C74.1623 21.0002 74.2823 20.6962 74.2823 20.2802C74.2823 19.4642 73.8103 19.0562 72.8663 19.0562H70.4423V21.4562H72.8663Z" fill="#211336"/>
</svg>
